<?xml version="1.0" standalone="no"?><!-- Generator: Gravit.io --><svg xmlns="http://www.w3.org/2000/svg" xmlns:xlink="http://www.w3.org/1999/xlink" style="isolation:isolate" viewBox="0 0 380.297 109" width="380.297" height="109"><g><path d=" M 73.689 85.896 L 73.689 27.576 L 81.105 27.576 L 95.289 60.84 L 95.289 27.576 L 104.073 27.576 L 104.073 85.896 L 97.017 85.896 L 82.761 51.048 L 82.761 85.896 L 73.689 85.896 L 73.689 85.896 Z  M 128.841 86.688 L 128.841 86.688 Q 119.769 86.688 115.881 81.828 L 115.881 81.828 L 115.881 81.828 Q 111.993 76.968 111.993 67.608 L 111.993 67.608 L 111.993 45.72 L 111.993 45.72 Q 111.993 36.432 115.881 31.68 L 115.881 31.68 L 115.881 31.68 Q 119.769 26.928 128.841 26.928 L 128.841 26.928 L 128.841 26.928 Q 137.841 26.928 141.729 31.68 L 141.729 31.68 L 141.729 31.68 Q 145.617 36.432 145.617 45.72 L 145.617 45.72 L 145.617 67.608 L 145.617 67.608 Q 145.617 76.896 141.693 81.792 L 141.693 81.792 L 141.693 81.792 Q 137.769 86.688 128.841 86.688 L 128.841 86.688 L 128.841 86.688 Z  M 128.841 78.84 L 128.841 78.84 Q 132.369 78.84 133.593 76.608 L 133.593 76.608 L 133.593 76.608 Q 134.817 74.376 134.817 70.128 L 134.817 70.128 L 134.817 43.272 L 134.817 43.272 Q 134.817 39.024 133.629 36.864 L 133.629 36.864 L 133.629 36.864 Q 132.441 34.704 128.841 34.704 L 128.841 34.704 L 128.841 34.704 Q 125.241 34.704 124.017 36.9 L 124.017 36.9 L 124.017 36.9 Q 122.793 39.096 122.793 43.272 L 122.793 43.272 L 122.793 70.128 L 122.793 70.128 Q 122.793 74.376 124.017 76.608 L 124.017 76.608 L 124.017 76.608 Q 125.241 78.84 128.841 78.84 L 128.841 78.84 L 128.841 78.84 Z  M 153.321 85.896 L 154.329 27.576 L 165.345 27.576 L 173.625 67.968 L 182.193 27.576 L 192.921 27.576 L 194.001 85.896 L 186.081 85.896 L 185.217 45.36 L 176.937 85.896 L 170.529 85.896 L 162.105 45.216 L 161.313 85.896 L 153.321 85.896 L 153.321 85.896 Z  M 199.689 85.896 L 211.353 27.576 L 222.729 27.576 L 234.393 85.896 L 224.529 85.896 L 222.225 72.432 L 212.073 72.432 L 209.697 85.896 L 199.689 85.896 L 199.689 85.896 Z  M 213.153 65.664 L 221.073 65.664 L 217.113 41.184 L 213.153 65.664 L 213.153 65.664 Z  M 254.913 86.688 L 254.913 86.688 Q 246.993 86.688 243.069 82.224 L 243.069 82.224 L 243.069 82.224 Q 239.145 77.76 238.785 68.904 L 238.785 68.904 L 247.929 67.104 L 247.929 67.104 Q 248.145 72.648 249.693 75.564 L 249.693 75.564 L 249.693 75.564 Q 251.241 78.48 254.553 78.48 L 254.553 78.48 L 254.553 78.48 Q 257.001 78.48 258.189 77.004 L 258.189 77.004 L 258.189 77.004 Q 259.377 75.528 259.377 73.008 L 259.377 73.008 L 259.377 73.008 Q 259.377 69.552 257.829 67.14 L 257.829 67.14 L 257.829 67.14 Q 256.281 64.728 252.969 61.848 L 252.969 61.848 L 245.625 55.44 L 245.625 55.44 Q 242.241 52.56 240.549 49.248 L 240.549 49.248 L 240.549 49.248 Q 238.857 45.936 238.857 41.328 L 238.857 41.328 L 238.857 41.328 Q 238.857 34.488 242.853 30.708 L 242.853 30.708 L 242.853 30.708 Q 246.849 26.928 253.905 26.928 L 253.905 26.928 L 253.905 26.928 Q 261.465 26.928 264.741 31.212 L 264.741 31.212 L 264.741 31.212 Q 268.017 35.496 268.521 42.768 L 268.521 42.768 L 259.377 44.352 L 259.377 44.352 Q 259.161 39.6 258.045 37.188 L 258.045 37.188 L 258.045 37.188 Q 256.929 34.776 253.689 34.776 L 253.689 34.776 L 253.689 34.776 Q 251.385 34.776 250.089 36.324 L 250.089 36.324 L 250.089 36.324 Q 248.793 37.872 248.793 40.248 L 248.793 40.248 L 248.793 40.248 Q 248.793 43.056 249.909 44.964 L 249.909 44.964 L 249.909 44.964 Q 251.025 46.872 253.545 49.032 L 253.545 49.032 L 260.817 55.44 L 260.817 55.44 Q 264.921 58.968 267.225 63 L 267.225 63 L 267.225 63 Q 269.529 67.032 269.529 72.36 L 269.529 72.36 L 269.529 72.36 Q 269.529 76.536 267.693 79.776 L 267.693 79.776 L 267.693 79.776 Q 265.857 83.016 262.545 84.852 L 262.545 84.852 L 262.545 84.852 Q 259.233 86.688 254.913 86.688 L 254.913 86.688 L 254.913 86.688 Z  M 281.625 85.896 L 281.625 35.424 L 272.337 35.424 L 272.337 27.576 L 301.353 27.576 L 301.353 35.424 L 292.281 35.424 L 292.281 85.896 L 281.625 85.896 L 281.625 85.896 Z  M 306.681 85.896 L 306.681 27.576 L 331.161 27.576 L 331.161 35.064 L 317.265 35.064 L 317.265 51.84 L 328.209 51.84 L 328.209 59.256 L 317.265 59.256 L 317.265 78.624 L 331.305 78.624 L 331.305 85.896 L 306.681 85.896 L 306.681 85.896 Z  M 337.497 85.896 L 337.497 27.576 L 351.537 27.576 L 351.537 27.576 Q 360.753 27.576 365.289 31.068 L 365.289 31.068 L 365.289 31.068 Q 369.825 34.56 369.825 43.056 L 369.825 43.056 L 369.825 43.056 Q 369.825 48.6 368.205 52.092 L 368.205 52.092 L 368.205 52.092 Q 366.585 55.584 362.625 57.168 L 362.625 57.168 L 370.761 85.896 L 360.105 85.896 L 353.121 59.184 L 348.081 59.184 L 348.081 85.896 L 337.497 85.896 L 337.497 85.896 Z  M 348.081 52.56 L 351.465 52.56 L 351.465 52.56 Q 356.001 52.56 357.909 50.472 L 357.909 50.472 L 357.909 50.472 Q 359.817 48.384 359.817 43.632 L 359.817 43.632 L 359.817 43.632 Q 359.817 39.024 358.125 36.936 L 358.125 36.936 L 358.125 36.936 Q 356.433 34.848 352.041 34.848 L 352.041 34.848 L 348.081 34.848 L 348.081 52.56 L 348.081 52.56 Z " fill-rule="evenodd" fill="rgb(1,70,86)"/><rect x="8" y="27.692" width="58.059" height="58.059" transform="matrix(1,0,0,1,0,0)" fill="rgb(250,217,86)"/></g></svg>